<?xml version="1.0" encoding="UTF-8" standalone="no"?>
<!-- Created with Inkscape (http://www.inkscape.org/) -->

<svg
   version="1.0"
   width="600"
   height="199.41692"
   id="svg2424"
   sodipodi:docname="Archlogofugr.svg"
   inkscape:version="1.3 (0e150ed6c4, 2023-07-21)"
   inkscape:export-filename="E:\Downloaded\Project\Arch Stuff\For tardy\archlogofu\contents\splash\images\archlogo.png"
   inkscape:export-xdpi="72.210526"
   inkscape:export-ydpi="72.210526"
   xmlns:inkscape="http://www.inkscape.org/namespaces/inkscape"
   xmlns:sodipodi="http://sodipodi.sourceforge.net/DTD/sodipodi-0.dtd"
   xmlns:xlink="http://www.w3.org/1999/xlink"
   xmlns="http://www.w3.org/2000/svg"
   xmlns:svg="http://www.w3.org/2000/svg"
   xmlns:rdf="http://www.w3.org/1999/02/22-rdf-syntax-ns#"
   xmlns:cc="http://creativecommons.org/ns#"
   xmlns:dc="http://purl.org/dc/elements/1.1/">
  <metadata
     id="metadata34">
    <rdf:RDF>
      <cc:Work
         rdf:about="">
        <dc:format>image/svg+xml</dc:format>
        <dc:type
           rdf:resource="http://purl.org/dc/dcmitype/StillImage" />
        <dc:title />
      </cc:Work>
    </rdf:RDF>
  </metadata>
  <sodipodi:namedview
     pagecolor="#ffffff"
     bordercolor="#666666"
     borderopacity="1"
     objecttolerance="10"
     gridtolerance="10"
     guidetolerance="10"
     inkscape:pageopacity="0"
     inkscape:pageshadow="2"
     inkscape:window-width="2560"
     inkscape:window-height="1351"
     id="namedview32"
     showgrid="false"
     inkscape:zoom="2.7058619"
     inkscape:cx="297.13268"
     inkscape:cy="99.413795"
     inkscape:window-x="-9"
     inkscape:window-y="-9"
     inkscape:window-maximized="1"
     inkscape:current-layer="layer2"
     inkscape:showpageshadow="2"
     inkscape:pagecheckerboard="0"
     inkscape:deskcolor="#d1d1d1" />
  <defs
     id="defs2426">
    <linearGradient
       x1="112.49854"
       y1="6.1372099"
       x2="112.49853"
       y2="129.3468"
       id="path1082_2_"
       gradientUnits="userSpaceOnUse"
       gradientTransform="translate(287,-83)">
      <stop
         id="stop193"
         style="stop-color:#ffffff;stop-opacity:0"
         offset="0" />
      <stop
         id="stop195"
         style="stop-color:#ffffff;stop-opacity:0.27450982"
         offset="1" />
      <midPointStop
         offset="0"
         style="stop-color:#FFFFFF"
         id="midPointStop197" />
      <midPointStop
         offset="0.5"
         style="stop-color:#FFFFFF"
         id="midPointStop199" />
      <midPointStop
         offset="1"
         style="stop-color:#000000"
         id="midPointStop201" />
    </linearGradient>
    <linearGradient
       x1="541.33502"
       y1="104.50665"
       x2="606.91248"
       y2="303.14029"
       id="linearGradient2544"
       xlink:href="#path1082_2_"
       gradientUnits="userSpaceOnUse"
       gradientTransform="matrix(-0.3937741,0,0,0.393752,357.51969,122.00151)" />
    <linearGradient
       id="linearGradient3388">
      <stop
         id="stop3390"
         style="stop-color:#000000;stop-opacity:0"
         offset="0" />
      <stop
         id="stop3392"
         style="stop-color:#000000;stop-opacity:0.37113401"
         offset="1" />
    </linearGradient>
    <linearGradient
       x1="490.72305"
       y1="237.72447"
       x2="490.72305"
       y2="183.9644"
       id="linearGradient4416"
       xlink:href="#linearGradient3388"
       gradientUnits="userSpaceOnUse"
       gradientTransform="matrix(0.749107,0,0,0.749107,-35.459862,91.44108)" />
    <linearGradient
       inkscape:collect="always"
       xlink:href="#path1082_2_"
       id="linearGradient891"
       gradientUnits="userSpaceOnUse"
       gradientTransform="matrix(-0.34776649,0,0,0.34774708,328.36202,129.4727)"
       x1="546.98944"
       y1="121.47085"
       x2="635.18457"
       y2="338.95361" />
  </defs>
  <g
     transform="translate(-34.777313,-129.80241)"
     id="layer1">
    <g
       transform="matrix(0.8746356,0,0,0.8746356,14.730518,23.408954)"
       id="g2424">
      <g
         transform="matrix(0.6378586,0,0,0.6378586,36.486487,2.17139)"
         id="g2809"
         style="fill:#4d4d4d;fill-opacity:1">
        <path
           d="m 339.96875,309.09375 c -14.47141,-0.0239 -26.4812,2.94367 -31.125,4.5625 l -4.78125,25.8125 c -0.0116,0.0951 23.79543,-6.34855 34.28125,-5.96875 17.36158,0.62381 18.95948,6.63541 18.65625,14.75 0.29595,0.47462 -4.47933,-7.33192 -19.5,-7.59375 -18.94961,-0.32687 -45.69284,6.70947 -45.65625,35.3125 -0.51086,32.17412 24.03361,41.63882 40.75,41.8125 15.02821,-0.27364 22.0777,-5.69136 25.9375,-8.59375 5.07124,-5.30236 10.87308,-10.63447 16.40625,-17.03125 -5.23567,9.51278 -9.77472,16.0898 -14.5,21.125 l 0,4.25 22.84375,-3.84375 0.15625,-62.09375 c -0.23141,-8.78839 5.04123,-42.41827 -43.46875,-42.5 z m -3.28125,54.0625 c 9.46889,0.12995 20.32788,4.79708 20.34375,16.03125 0.049,10.21821 -12.80005,15.71183 -21.15625,15.625 -8.35976,-0.0868 -19.45093,-6.56982 -19.5,-16.53125 0.16016,-8.90444 10.45953,-15.35418 20.3125,-15.125 z"
           id="path2284"
           style="fill:#4d4d4d;fill-opacity:1;fill-rule:evenodd;stroke:none" />
        <path
           d="m 398.50106,314.83145 -0.15505,102.82693 26.61213,-5.12724 0.0449,-58.30157 c 0.006,-8.68089 12.40554,-18.82451 27.9627,-18.66287 3.30202,-5.97408 9.5087,-21.24219 11.02088,-24.71514 -34.75649,-0.0833 -35.19897,9.98993 -41.24398,14.94517 -0.0631,-9.45285 -0.0213,-15.12741 -0.0213,-15.12741 l -24.2202,4.16213 z"
           id="path2286"
           style="fill:#4d4d4d;fill-opacity:1;fill-rule:evenodd;stroke:none" />
        <path
           d="m 548.2688,328.33058 c -0.25696,-0.12068 -13.87938,-15.93419 -41.26638,-16.0589 -25.65249,-0.42638 -54.42578,9.51895 -54.88631,52.5328 0.22457,37.81852 27.6402,52.59809 55.0314,52.88627 29.31292,0.30451 40.97654,-18.32947 41.67615,-18.79124 -3.49762,-3.0321 -16.59792,-16.0131 -16.59792,-16.0131 0,0 -8.18236,11.65102 -24.05802,11.79913 -15.87942,0.1512 -29.68245,-12.27325 -29.87805,-29.60905 -0.20349,-17.33595 12.68881,-26.72821 29.99725,-27.48687 14.98466,-0.003 23.6297,9.67334 23.6297,9.67334 l 16.35218,-18.93238 z"
           id="path2288"
           style="fill:#4d4d4d;fill-opacity:1;fill-rule:evenodd;stroke:none" />
        <path
           d="m 581.8125,278.84375 -25.125,5.90625 0.1875,133.9375 24.75,-4.46875 0.28125,-63.03125 c 0.0529,-6.60927 9.56127,-16.75916 25.4375,-16.4375 15.17973,0.15775 18.57236,10.11767 18.53125,11.375 l 0.4375,72.96875 24.40625,-4.3125 0.0937,-77.375 c 0.1607,-7.44539 -16.30833,-23.16954 -42.78125,-23.28125 -12.58087,0.0202 -19.54815,2.86825 -23.09375,4.96875 -6.06656,4.68565 -12.9998,9.17543 -19.8125,14.90625 6.29809,-8.09099 11.58551,-13.68516 16.75,-17.84375 l -0.0625,-37.3125 z"
           id="path2290"
           style="fill:#4d4d4d;fill-opacity:1;fill-rule:evenodd;stroke:none" />
      </g>
      <g
         transform="matrix(0.9443373,0,0.01336345,0.9443373,78.345657,-412.48879)"
         id="g5326"
         style="fill:#00897b;fill-opacity:1;stroke:none">
        <path
           d="m 400.67581,629.79609 7.68167,-1.91575 -0.92851,91.20792 -7.79574,1.32426 1.04258,-90.61643 z"
           id="path2292"
           style="fill:#00897b;fill-opacity:1;fill-rule:evenodd;stroke:none" />
        <path
           d="m 421.10266,657.01757 6.75064,-2.9867 -0.86808,65.39931 -6.49779,1.33915 0.61523,-63.75176 z m -1.26059,-23.58316 5.47167,-4.41533 4.42261,4.99952 -5.47558,4.53221 -4.4187,-5.1164 z"
           id="path2294"
           style="fill:#00897b;fill-opacity:1;fill-rule:evenodd;stroke:none" />
        <path
           d="m 440.44273,655.82614 7.67755,-1.56201 -0.1573,13.6722 c -0.007,0.58717 4.4194,-15.27364 24.68502,-14.92094 19.67986,0.10952 22.68401,15.34634 22.5291,18.76237 l -0.43759,48.0783 -6.73044,1.45631 0.63316,-47.489 c 0.0974,-1.38684 -2.88144,-13.11441 -16.78906,-13.15754 -13.90509,-0.0404 -23.68364,10.10048 -23.75821,16.57937 l -0.48127,41.83477 -7.80388,2.0313 0.63292,-65.28513 z"
           id="path2296"
           style="fill:#00897b;fill-opacity:1;fill-rule:evenodd;stroke:none" />
        <path
           d="m 561.53301,720.20203 -7.6776,1.56186 0.15737,-13.67198 c 0.007,-0.58742 -4.42201,15.27361 -24.68504,14.92086 -19.67983,-0.10944 -22.68399,-15.34626 -22.52908,-18.76229 l 0.43757,-48.07861 8.15674,-1.64226 -0.54644,47.48988 c -0.0149,1.29682 1.36845,13.29979 15.27604,13.3426 13.90511,0.0405 23.76622,-8.37359 24.01453,-21.04416 l 0.43105,-37.46902 7.5978,-1.93195 -0.63294,65.28507 z"
           id="path2298"
           style="fill:#00897b;fill-opacity:1;fill-rule:evenodd;stroke:none" />
        <path
           d="m 577.45461,655.28678 -5.42715,4.20017 20.19894,26.93328 -22.39092,31.11622 5.63499,4.226 21.04365,-28.8967 20.8779,29.58159 5.32727,-4.20103 -22.37578,-31.62866 18.56963,-25.5775 -5.53193,-4.73429 -16.92109,23.66778 -19.00551,-24.68686 z"
           id="path2300"
           style="fill:#00897b;fill-opacity:1;fill-rule:evenodd;stroke:none" />
      </g>
      <g
         id="text2634"
         style="font-size:8.44138241px;font-style:normal;font-weight:normal;fill:#1793d1;fill-opacity:1;stroke:none;font-family:DejaVu Sans Mono">
        <path
           d="m 685.46692,263.83624 0,-5.32944 -1.99082,0 0,-0.71307 4.7895,0 0,0.71307 -1.99906,0 0,5.32944 -0.79962,0"
           id="path3945"
           style="fill:#006a80;fill-opacity:1" />
        <path
           d="m 689.0982,263.83624 0,-6.04251 1.20355,0 1.43026,4.2784 c 0.13189,0.39843 0.22806,0.69658 0.28852,0.89442 0.0687,-0.21983 0.17586,-0.5427 0.3215,-0.96862 l 1.44674,-4.2042 1.07578,0 0,6.04251 -0.77077,0 0,-5.05741 -1.75587,5.05741 -0.72131,0 -1.74763,-5.14396 0,5.14396 -0.77077,0"
           id="path3947"
           style="fill:#006a80;fill-opacity:1" />
      </g>
      <g
         id="text2638"
         style="font-size:8.25130367px;font-style:normal;font-weight:normal;fill:#1793d1;fill-opacity:1;stroke:none;font-family:DejaVu Sans Mono">
        <path
           d="m 239.84053,313.69965 0,-5.20945 -1.94598,0 0,-0.697 4.68164,0 0,0.697 -1.95404,0 0,5.20945 -0.78162,0"
           id="path3940"
           style="fill:#006a80;fill-opacity:1" />
        <path
           d="m 243.39004,313.69965 0,-5.90645 1.17646,0 1.39805,4.18205 c 0.12892,0.38947 0.22293,0.6809 0.28202,0.87429 0.0671,-0.21488 0.1719,-0.53048 0.31426,-0.94681 l 1.41417,-4.10953 1.05155,0 0,5.90645 -0.75341,0 0,-4.94353 -1.71634,4.94353 -0.70506,0 -1.70828,-5.02814 0,5.02814 -0.75342,0"
           id="path3942"
           style="fill:#006a80;fill-opacity:1" />
      </g>
      <text
         xml:space="preserve"
         style="font-style:normal;font-weight:normal;font-size:45.7333px;line-height:1.25;font-family:sans-serif;letter-spacing:0px;word-spacing:0px;fill:#006a80;fill-opacity:1;stroke:none;stroke-width:1.14333"
         x="281.66406"
         y="315.58221"
         id="text843" />
      <text
         xml:space="preserve"
         style="font-style:normal;font-variant:normal;font-weight:bold;font-stretch:normal;font-size:28.9644px;line-height:1.25;font-family:Arial;-inkscape-font-specification:'Arial, Bold';font-variant-ligatures:normal;font-variant-caps:normal;font-variant-numeric:normal;font-feature-settings:normal;text-align:start;letter-spacing:0px;word-spacing:0px;writing-mode:lr-tb;text-anchor:start;fill:#00897b;fill-opacity:1;stroke:none;stroke-width:0.657821"
         x="276.4552"
         y="306.90512"
         id="text847"
         transform="scale(1.0130203,0.98714704)"><tspan
           sodipodi:role="line"
           id="tspan845"
           x="276.4552"
           y="306.90512"
           style="font-style:normal;font-variant:normal;font-weight:bold;font-stretch:normal;font-size:28.9644px;font-family:Arial;-inkscape-font-specification:'Arial, Bold';font-variant-ligatures:normal;font-variant-caps:normal;font-variant-numeric:normal;font-feature-settings:normal;text-align:start;writing-mode:lr-tb;text-anchor:start;fill:#00897b;fill-opacity:1;stroke-width:0.657821">Because fuck you, that's why.</tspan></text>
    </g>
    <g
       inkscape:groupmode="layer"
       id="layer2"
       inkscape:label="Layer 1"
       style="opacity:1">
      <path
         style="fill:#008d7f;fill-opacity:1;fill-rule:evenodd;stroke:none;stroke-width:0.655469;stroke-linecap:round;stroke-linejoin:round;stroke-miterlimit:10;stroke-dasharray:none;stroke-opacity:1"
         d="m 139.71884,145.93641 c -7.46911,18.31197 -12.00401,30.30727 -20.31969,48.07474 5.09852,5.40458 11.36481,11.6751 21.52823,18.78349 -10.92684,-4.49621 -18.37538,-8.99865 -23.94522,-13.68303 -10.6427,22.20737 -27.327319,53.8283 -61.163847,114.6258 26.587769,-15.34961 47.198917,-24.81725 66.407407,-28.4312 -0.8218,-3.54251 -1.26064,-7.39205 -1.22891,-11.38895 l 0.0211,-0.83971 c 0.42192,-17.03849 9.28749,-30.14006 19.78701,-29.25041 10.49954,0.88954 18.67287,15.42806 18.2509,32.46618 -0.081,3.2095 -0.45262,6.29316 -1.08571,9.1563 19.00186,3.71858 39.41872,13.144 65.64968,28.28779 -5.17299,-9.52374 -9.80628,-18.10398 -14.21563,-26.2805 -6.94549,-5.38303 -14.18632,-12.38672 -28.96372,-19.97141 10.15713,2.63927 17.43677,5.69122 23.10545,9.09467 -44.83084,-83.46757 -48.45287,-94.56615 -63.82653,-130.64376 z"
         id="path2518-8" />
      <path
         style="fill:#ffffff;fill-opacity:0.16568;fill-rule:evenodd;stroke:none;stroke-width:31.8822;stroke-linecap:butt;stroke-linejoin:round;stroke-miterlimit:10;stroke-opacity:1"
         d="m 186.94658,245.67158 c -36.36969,-49.3644 -44.79991,-89.15069 -46.93521,-98.64938 19.40071,44.74878 19.26817,45.29738 46.93521,98.64938 z"
         id="path2522"
         sodipodi:nodetypes="ccc" />
      <path
         style="opacity:0.774;fill:url(#linearGradient891);fill-opacity:1;fill-rule:evenodd;stroke:none;stroke-width:0.630718;stroke-linecap:round;stroke-linejoin:round;stroke-miterlimit:10;stroke-dasharray:none;stroke-opacity:1"
         d="m 140.02606,146.6533 c -0.93305,2.29368 -1.84208,4.51936 -2.70386,6.63675 -0.95486,2.34562 -1.86278,4.58483 -2.76525,6.77999 -0.90247,2.19538 -1.79669,4.33766 -2.68324,6.4523 -0.88686,2.11471 -1.77596,4.20544 -2.68361,6.30886 -0.9072,2.10364 -1.82059,4.22903 -2.78573,6.39087 -0.96487,2.1622 -1.97226,4.3672 -3.03148,6.65729 -1.05923,2.28974 -2.16942,4.66135 -3.35931,7.1487 -0.16483,0.34439 -0.36482,0.73655 -0.53251,1.08563 5.08266,5.38329 11.34098,11.61336 21.44631,18.68095 -10.89859,-4.4846 -18.33893,-8.97083 -23.90425,-13.64202 -0.28895,0.5897 -0.54215,1.11652 -0.83982,1.72052 -0.39189,0.79512 -0.86228,1.69859 -1.27009,2.51955 -0.71499,1.46645 -1.46232,2.97252 -2.23268,4.52668 -0.296,0.58877 -0.55604,1.09777 -0.86026,1.7003 -4.86402,9.7612 -10.8979,21.44591 -18.66049,35.969 21.28015,-11.9896 44.23355,-29.28774 85.92834,-14.39998 -2.09058,-3.95937 -4.01238,-7.67239 -5.81751,-11.16341 -1.80479,-3.49103 -3.48162,-6.76101 -5.03877,-9.85251 -1.55696,-3.09158 -2.9958,-6.00616 -4.3425,-8.76702 -1.34672,-2.76067 -2.59513,-5.36667 -3.76899,-7.86575 -1.17407,-2.49913 -2.27965,-4.9038 -3.31831,-7.21006 -1.03885,-2.30641 -2.02869,-4.51572 -2.97013,-6.69815 -0.9416,-2.18251 -1.84281,-4.325 -2.72433,-6.45243 -0.88157,-2.12732 -1.74221,-4.24947 -2.60146,-6.39075 -0.30701,-0.76508 -0.61413,-1.56229 -0.92173,-2.33529 -2.35221,-5.52188 -4.76749,-11.24381 -7.55834,-17.80002 z"
         id="path2520" />
    </g>
  </g>
</svg>
